<mxfile host="app.diagrams.net" modified="2024-03-20T06:10:54.345Z" agent="Mozilla/5.0 (Windows NT 10.0; Win64; x64) AppleWebKit/537.36 (KHTML, like Gecko) Chrome/122.0.0.0 Safari/537.36 Edg/122.0.0.0" version="24.0.7" etag="he4t1OeS0iwOAmE2qfnn" type="github">
  <diagram name="第 1 页" id="iVRpCrUrP8xbL3HAmuBc">
    <mxGraphModel>
      <root>
        <mxCell id="0" />
        <mxCell id="1" parent="0" />
      </root>
    </mxGraphModel>
  </diagram>
</mxfile>
